<mxfile host="app.diagrams.net" modified="2021-07-20T15:56:39.315Z" agent="5.0 (Windows NT 10.0; Win64; x64) AppleWebKit/537.36 (KHTML, like Gecko) Chrome/91.0.4472.164 Safari/537.36" etag="lSWOUjCowNcFbwMwpbwV" version="14.9.0" type="github">
  <diagram id="prtHgNgQTEPvFCAcTncT" name="Page-1">
    <mxGraphModel dx="1089" dy="613" grid="1" gridSize="10" guides="1" tooltips="1" connect="1" arrows="1" fold="1" page="1" pageScale="1" pageWidth="827" pageHeight="1169" math="0" shadow="0">
      <root>
        <mxCell id="0" />
        <mxCell id="1" parent="0" />
        <mxCell id="IexTbNOmBkyY9w6QcAet-1" value="&lt;h1&gt;&lt;br&gt;&lt;/h1&gt;" style="whiteSpace=wrap;html=1;fillColor=#B2C9AB;strokeColor=#788AA3;fontFamily=Helvetica;textDirection=ltr;fontSize=14;" vertex="1" parent="1">
          <mxGeometry x="200" y="30" width="820" height="520" as="geometry" />
        </mxCell>
        <mxCell id="IexTbNOmBkyY9w6QcAet-2" value="" style="shape=flexArrow;endArrow=classic;html=1;curved=1;strokeColor=#788AA3;fontColor=#46495D;" edge="1" parent="1">
          <mxGeometry width="50" height="50" relative="1" as="geometry">
            <mxPoint x="590" y="585" as="sourcePoint" />
            <mxPoint x="590" y="660" as="targetPoint" />
          </mxGeometry>
        </mxCell>
        <mxCell id="IexTbNOmBkyY9w6QcAet-3" style="edgeStyle=orthogonalEdgeStyle;curved=0;rounded=1;sketch=0;orthogonalLoop=1;jettySize=auto;html=1;exitX=1;exitY=0.5;exitDx=0;exitDy=0;entryX=0.986;entryY=0.519;entryDx=0;entryDy=0;entryPerimeter=0;fontColor=#46495D;strokeColor=#788AA3;fillColor=#B2C9AB;" edge="1" parent="1" source="IexTbNOmBkyY9w6QcAet-1" target="IexTbNOmBkyY9w6QcAet-1">
          <mxGeometry relative="1" as="geometry" />
        </mxCell>
        <mxCell id="IexTbNOmBkyY9w6QcAet-6" value="&lt;font style=&quot;font-size: 36px&quot;&gt;PokeApp&lt;/font&gt;" style="text;html=1;resizable=0;autosize=1;align=center;verticalAlign=middle;points=[];fillColor=none;strokeColor=none;rounded=0;sketch=0;fontFamily=Helvetica;fontSize=14;fontColor=#000000;" vertex="1" parent="1">
          <mxGeometry x="530" y="80" width="160" height="30" as="geometry" />
        </mxCell>
        <mxCell id="IexTbNOmBkyY9w6QcAet-9" value="" style="shape=table;startSize=0;container=1;collapsible=0;childLayout=tableLayout;" vertex="1" parent="1">
          <mxGeometry x="500" y="130" width="220" height="30" as="geometry" />
        </mxCell>
        <mxCell id="IexTbNOmBkyY9w6QcAet-10" value="" style="shape=partialRectangle;collapsible=0;dropTarget=0;pointerEvents=0;fillColor=none;top=0;left=0;bottom=0;right=0;points=[[0,0.5],[1,0.5]];portConstraint=eastwest;" vertex="1" parent="IexTbNOmBkyY9w6QcAet-9">
          <mxGeometry width="220" height="30" as="geometry" />
        </mxCell>
        <mxCell id="IexTbNOmBkyY9w6QcAet-11" value="&lt;font style=&quot;font-size: 18px&quot;&gt;Search for a pokemon&lt;/font&gt;" style="shape=partialRectangle;html=1;whiteSpace=wrap;connectable=0;overflow=hidden;fillColor=none;top=0;left=0;bottom=0;right=0;" vertex="1" parent="IexTbNOmBkyY9w6QcAet-10">
          <mxGeometry width="220" height="30" as="geometry" />
        </mxCell>
        <mxCell id="IexTbNOmBkyY9w6QcAet-12" value="" style="shape=table;startSize=0;container=1;collapsible=0;childLayout=tableLayout;" vertex="1" parent="1">
          <mxGeometry x="284" y="200" width="130" height="110" as="geometry" />
        </mxCell>
        <mxCell id="IexTbNOmBkyY9w6QcAet-13" value="" style="shape=partialRectangle;collapsible=0;dropTarget=0;pointerEvents=0;fillColor=none;top=0;left=0;bottom=0;right=0;points=[[0,0.5],[1,0.5]];portConstraint=eastwest;" vertex="1" parent="IexTbNOmBkyY9w6QcAet-12">
          <mxGeometry width="130" height="110" as="geometry" />
        </mxCell>
        <mxCell id="IexTbNOmBkyY9w6QcAet-14" value="GRASS" style="shape=partialRectangle;html=1;whiteSpace=wrap;connectable=0;overflow=hidden;fillColor=none;top=0;left=0;bottom=0;right=0;" vertex="1" parent="IexTbNOmBkyY9w6QcAet-13">
          <mxGeometry width="130" height="110" as="geometry" />
        </mxCell>
        <mxCell id="IexTbNOmBkyY9w6QcAet-15" value="Water" style="whiteSpace=wrap;html=1;aspect=fixed;rounded=0;sketch=0;fontFamily=Helvetica;fontSize=14;" vertex="1" parent="1">
          <mxGeometry x="460" y="200" width="110" height="110" as="geometry" />
        </mxCell>
        <mxCell id="IexTbNOmBkyY9w6QcAet-16" value="" style="whiteSpace=wrap;html=1;aspect=fixed;rounded=0;sketch=0;fontFamily=Helvetica;fontSize=14;" vertex="1" parent="1">
          <mxGeometry x="610" y="200" width="110" height="110" as="geometry" />
        </mxCell>
        <mxCell id="IexTbNOmBkyY9w6QcAet-17" value="Fire" style="whiteSpace=wrap;html=1;aspect=fixed;rounded=0;sketch=0;fontFamily=Helvetica;fontSize=14;" vertex="1" parent="1">
          <mxGeometry x="610" y="200" width="110" height="110" as="geometry" />
        </mxCell>
        <mxCell id="IexTbNOmBkyY9w6QcAet-18" value="Bug" style="whiteSpace=wrap;html=1;aspect=fixed;rounded=0;sketch=0;fontFamily=Helvetica;fontSize=14;fontColor=#000000;strokeColor=#788AA3;fillColor=#B2C9AB;" vertex="1" parent="1">
          <mxGeometry x="330" y="330" width="80" height="80" as="geometry" />
        </mxCell>
        <mxCell id="IexTbNOmBkyY9w6QcAet-19" value="Normal" style="whiteSpace=wrap;html=1;aspect=fixed;rounded=0;sketch=0;fontFamily=Helvetica;fontSize=14;fontColor=#000000;strokeColor=#788AA3;fillColor=#B2C9AB;" vertex="1" parent="1">
          <mxGeometry x="510" y="340" width="80" height="80" as="geometry" />
        </mxCell>
        <mxCell id="IexTbNOmBkyY9w6QcAet-20" value="Poison" style="whiteSpace=wrap;html=1;aspect=fixed;rounded=0;sketch=0;fontFamily=Helvetica;fontSize=14;fontColor=#000000;strokeColor=#788AA3;fillColor=#B2C9AB;" vertex="1" parent="1">
          <mxGeometry x="640" y="340" width="80" height="80" as="geometry" />
        </mxCell>
        <mxCell id="IexTbNOmBkyY9w6QcAet-21" value="Electric" style="whiteSpace=wrap;html=1;aspect=fixed;rounded=0;sketch=0;fontFamily=Helvetica;fontSize=14;fontColor=#000000;strokeColor=#788AA3;fillColor=#B2C9AB;" vertex="1" parent="1">
          <mxGeometry x="670" y="410" width="80" height="80" as="geometry" />
        </mxCell>
        <mxCell id="IexTbNOmBkyY9w6QcAet-22" value="Ground" style="whiteSpace=wrap;html=1;aspect=fixed;rounded=0;sketch=0;fontFamily=Helvetica;fontSize=14;fontColor=#000000;strokeColor=#788AA3;fillColor=#B2C9AB;" vertex="1" parent="1">
          <mxGeometry x="850" y="380" width="80" height="80" as="geometry" />
        </mxCell>
        <mxCell id="IexTbNOmBkyY9w6QcAet-24" value="" style="edgeStyle=orthogonalEdgeStyle;curved=0;rounded=1;sketch=0;orthogonalLoop=1;jettySize=auto;html=1;fontFamily=Helvetica;fontSize=14;fontColor=#000000;strokeColor=#788AA3;fillColor=#B2C9AB;" edge="1" parent="1" source="IexTbNOmBkyY9w6QcAet-23" target="IexTbNOmBkyY9w6QcAet-22">
          <mxGeometry relative="1" as="geometry" />
        </mxCell>
        <mxCell id="IexTbNOmBkyY9w6QcAet-23" value="Fairy" style="whiteSpace=wrap;html=1;aspect=fixed;rounded=0;sketch=0;fontFamily=Helvetica;fontSize=14;fontColor=#000000;strokeColor=#788AA3;fillColor=#B2C9AB;" vertex="1" parent="1">
          <mxGeometry x="790" y="220" width="80" height="80" as="geometry" />
        </mxCell>
        <mxCell id="IexTbNOmBkyY9w6QcAet-25" value="Fighting" style="whiteSpace=wrap;html=1;aspect=fixed;rounded=0;sketch=0;fontFamily=Helvetica;fontSize=14;fontColor=#000000;strokeColor=#788AA3;fillColor=#B2C9AB;" vertex="1" parent="1">
          <mxGeometry x="410" y="440" width="80" height="80" as="geometry" />
        </mxCell>
        <mxCell id="IexTbNOmBkyY9w6QcAet-26" value="Psychic" style="whiteSpace=wrap;html=1;aspect=fixed;rounded=0;sketch=0;fontFamily=Helvetica;fontSize=14;fontColor=#000000;strokeColor=#788AA3;fillColor=#B2C9AB;" vertex="1" parent="1">
          <mxGeometry x="570" y="440" width="80" height="80" as="geometry" />
        </mxCell>
        <mxCell id="IexTbNOmBkyY9w6QcAet-27" value="Rock" style="whiteSpace=wrap;html=1;aspect=fixed;rounded=0;sketch=0;fontFamily=Helvetica;fontSize=14;fontColor=#000000;strokeColor=#788AA3;fillColor=#B2C9AB;" vertex="1" parent="1">
          <mxGeometry x="250" y="390" width="80" height="80" as="geometry" />
        </mxCell>
        <mxCell id="IexTbNOmBkyY9w6QcAet-28" value="Ghost" style="whiteSpace=wrap;html=1;aspect=fixed;rounded=0;sketch=0;fontFamily=Helvetica;fontSize=14;fontColor=#000000;strokeColor=#788AA3;fillColor=#B2C9AB;" vertex="1" parent="1">
          <mxGeometry x="420" y="340" width="80" height="80" as="geometry" />
        </mxCell>
      </root>
    </mxGraphModel>
  </diagram>
</mxfile>
